<?xml version="1.0" encoding="UTF-8"?>
<svg width="13px" height="14px" viewBox="0 0 13 14" version="1.1" xmlns="http://www.w3.org/2000/svg" xmlns:xlink="http://www.w3.org/1999/xlink">
    <g id="VesselIconDropdown" stroke="none" stroke-width="1" fill="none" fill-rule="evenodd" fill-opacity="0.85">
        <path d="M6.80333333,12.6550684 C7.03980752,12.7086931 7.25722216,12.8264345 7.41,13.0082925 C7.67,13.2662001 8.10333333,13.2662001 8.36333333,13.0082925 C8.62333333,12.7503849 8.92666667,12.6214311 9.27333333,12.6214311 C9.62,12.6214311 9.96666667,12.7503849 10.1833333,13.0082925 C10.3133333,13.1372463 10.4866667,13.2232155 10.66,13.2232155 C10.8333333,13.2232155 11.0066667,13.1372463 11.1366667,13.0082925 C11.6133333,12.4924773 12.48,12.4924773 13,13.0082925 L12.5666667,13.4811232 C12.3066667,13.2232155 11.8733333,13.2232155 11.6133333,13.4811232 C11.3533333,13.6960462 11.05,13.825 10.7033333,13.825 C10.3566667,13.825 10.01,13.6960462 9.79333333,13.4381386 C9.53333333,13.1802309 9.1,13.1802309 8.84,13.4381386 C8.58,13.6960462 8.27666667,13.825 7.93,13.825 C7.58333333,13.825 7.23666667,13.6960462 7.02,13.4381386 C6.76,13.1802309 6.32666667,13.1802309 6.06666667,13.4381386 C5.80666667,13.6960462 5.50333333,13.825 5.15666667,13.825 C4.81,13.825 4.46333333,13.6960462 4.24666667,13.4381386 C4.11666667,13.3091847 3.94333333,13.2232155 3.77,13.2232155 C3.59666667,13.2232155 3.42333333,13.3091847 3.29333333,13.4381386 C2.81666667,13.9539538 1.95,13.9539538 1.43,13.4381386 C1.17,13.1802309 0.736666667,13.1802309 0.476666667,13.4381386 L0,13.0082925 C0.476666667,12.4924773 1.34333333,12.4924773 1.86333333,13.0082925 C1.99333333,13.1372463 2.16666667,13.2232155 2.34,13.2232155 C2.51333333,13.2232155 2.68666667,13.1372463 2.81666667,13.0082925 C3.07666667,12.7503849 3.38,12.6214311 3.72666667,12.6214311 C4.07333333,12.6214311 4.42,12.7503849 4.63666667,13.0082925 C4.76666667,13.1372463 4.94,13.2232155 5.11333333,13.2232155 C5.28666667,13.2232155 5.46,13.1372463 5.59,13.0082925 C5.75938577,12.8402699 5.94716354,12.7269793 6.15333333,12.6684207 L6.15333333,6.77552484 L6.80333333,6.77552484 L6.80333333,12.6550684 Z M5.28666667,1.31170399 L5.93666667,1.31170399 L5.93666667,2.04244227 L5.28666667,2.04244227 L5.28666667,1.31170399 Z M7.06333333,1.31170399 L7.71333333,1.31170399 L7.71333333,2.04244227 L7.06333333,2.04244227 L7.06333333,1.31170399 Z M2.55666667,6.81850945 C2.47,6.81850945 2.42666667,6.81850945 2.38333333,6.77552484 C2.29666667,6.73254024 2.25333333,6.60358642 2.25333333,6.51761721 L2.25333333,3.25078726 C2.25333333,3.07884885 2.38333333,2.90691043 2.6,2.90691043 L10.53,2.90691043 C10.7033333,2.90691043 10.8766667,3.03586424 10.8766667,3.25078726 L10.8766667,6.47463261 C10.8766667,6.56060182 10.8333333,6.68955563 10.7466667,6.73254024 C10.66,6.77552484 10.53,6.81850945 10.4433333,6.77552484 L6.5,5.40001749 L2.64333333,6.77552484 C2.6,6.77552484 2.6,6.81850945 2.55666667,6.81850945 Z M6.5,4.71226382 C6.54333333,4.71226382 6.58666667,4.71226382 6.63,4.71226382 L10.14,5.95881735 L10.14,3.5516795 L2.86,3.5516795 L2.86,6.00180196 L6.37,4.75524843 C6.41333333,4.75524843 6.45666667,4.71226382 6.5,4.71226382 Z M7.88666667,13.825 C7.54,13.825 7.19333333,13.6960462 6.97666667,13.4381386 C6.71666667,13.1802309 6.28333333,13.1802309 6.02333333,13.4381386 C5.54666667,13.9539538 4.68,13.9539538 4.16,13.4381386 C3.94333333,13.2232155 3.55333333,13.1802309 3.29333333,13.395154 L2.94666667,13.6530616 L0.303333333,6.94746326 L6.5,4.71226382 L12.6966667,6.94746326 L10.01,13.6530616 L9.66333333,13.395154 C9.40333333,13.2232155 9.01333333,13.2232155 8.79666667,13.4381386 C8.58,13.6960462 8.23333333,13.825 7.88666667,13.825 Z M6.5,12.6214311 C6.84666667,12.6214311 7.19333333,12.7503849 7.41,13.0082925 C7.67,13.2662001 8.10333333,13.2662001 8.36333333,13.0082925 C8.71,12.6644157 9.23,12.5354619 9.70666667,12.7074003 L11.83,7.3343247 L6.5,5.40001749 L1.17,7.3343247 L3.29333333,12.7074003 C3.77,12.5354619 4.29,12.6644157 4.63666667,13.0082925 C4.89666667,13.2662001 5.33,13.2662001 5.59,13.0082925 C5.80666667,12.7503849 6.15333333,12.6214311 6.5,12.6214311 Z M9.23,2.86392582 C9.28984841,2.86392582 9.33592593,2.82782471 9.33592593,2.81754008 L9.33592593,0.739733762 C9.33592593,0.689542566 9.29306872,0.652606718 9.23,0.652606718 L3.77,0.652606718 C3.70256837,0.652606718 3.66407407,0.692088587 3.66407407,0.739733762 L3.66407407,2.81754008 C3.66407407,2.82782471 3.71015159,2.86392582 3.77,2.86392582 L9.23,2.86392582 Z M9.23,3.34153254 L3.77,3.34153254 C3.46584841,3.34153254 3.18259259,3.11960542 3.18259259,2.81754008 L3.18259259,0.739733762 C3.18259259,0.431818497 3.43298719,0.175 3.77,0.175 L9.23,0.175 C9.5451131,0.175 9.81740741,0.409672821 9.81740741,0.739733762 L9.81740741,2.81754008 C9.81740741,3.11960542 9.53415159,3.34153254 9.23,3.34153254 Z" id="Ship" fill="#303030" fill-rule="nonzero"></path>
    </g>
</svg>